<?xml version="1.0" encoding="UTF-8"?>
<!DOCTYPE svg PUBLIC "-//W3C//DTD SVG 1.1//EN" "http://www.w3.org/Graphics/SVG/1.1/DTD/svg11.dtd">
<!-- Creator: CorelDRAW -->
<svg xmlns="http://www.w3.org/2000/svg" xml:space="preserve" width="0.666669in" height="0.224953in" version="1.1" style="shape-rendering:geometricPrecision; text-rendering:geometricPrecision; image-rendering:optimizeQuality; fill-rule:evenodd; clip-rule:evenodd"
viewBox="0 0 666.67 224.95"
 xmlns:xlink="http://www.w3.org/1999/xlink"
 xmlns:xodm="http://www.corel.com/coreldraw/odm/2003">
 <defs>
  <style type="text/css">
   <![CDATA[
    .fil0 {fill:#09090B}
    .fil1 {fill:#EBEBEC}
    .fil2 {fill:white}
   ]]>
  </style>
 </defs>
 <g id="Layer_x0020_1">
  <metadata id="CorelCorpID_0Corel-Layer"/>
  <g id="_2272007863120">
   <path class="fil0" d="M217.76 101.93l-7.74 26.83 -12.52 -4.41c-3.53,-1.21 -1.75,0.8 -1.24,1.87 4.77,1.58 7.92,4.37 11.54,6.28 0,3.49 -1.2,6.73 -2.24,9.54 -4.76,0.43 -11.31,-1.98 -14.9,0.18 2.18,2.09 8.69,1.57 13.21,5.16 0.47,5.63 -3.09,10.2 0.48,16.83 9.44,17.18 61.77,50.63 80.09,59.87 12.02,6.06 26.07,2.22 39.41,-0.24 34.1,-6.28 75.62,-19.36 107.08,-32.94 10.96,-4.74 19.44,-12.86 24.22,-22.3l4.75 1.17c4.37,1.65 4.8,5.34 8.11,2.94 -1.62,-2.14 -7.52,-6.04 -10.41,-7.61 -0.22,-2.33 0.85,-10.43 1.6,-12.69 1.13,-3.39 5.63,-4.08 9.96,-4.94l4.91 -1.97 -0 -2.1c-2.72,0.76 -4.19,1.63 -7.35,2.19 -1.18,0.21 -3.24,0.57 -4.33,0.6 -0.73,0.02 -1.1,0.01 -1.81,-0.1 -1.62,-0.24 -0.71,0 -1.59,-0.53 -1.46,-3.31 -2.61,-25.74 -3.08,-31.39 -0.91,-10.78 -1.49,-20.13 0.75,-30.86 1.46,-21.86 3.64,-56.32 -9.16,-76.12 -1.81,-2.81 -3.17,-4.96 -7.6,-4.79 -26.61,1.01 -61.69,14.53 -71.99,29.12 -7.48,0.46 -26.98,-3.2 -36.03,-4.08 -6.07,-0.59 -12.5,-1.29 -18.59,-1.5 -12.06,-0.41 -8.93,1.09 -16.85,-4.07 -11.54,-7.53 -45.77,-19.72 -63.17,-17.06 -4.66,13.69 -8.64,30.48 -10.37,46.19 -1.11,10.16 -1.19,38.37 -1.75,40.64 -0.51,2.07 -2.64,9.07 -3.41,10.31z"/>
   <path class="fil1" d="M456.67 83.3c-2.24,10.72 -1.67,20.07 -0.75,30.86 0.48,5.65 1.62,28.08 3.08,31.39 0.88,0.53 -0.02,0.29 1.59,0.53 0.72,0.11 1.09,0.12 1.81,0.1 1.09,-0.03 3.15,-0.39 4.33,-0.6 3.16,-0.56 4.63,-1.43 7.35,-2.19l0 2.1c3.28,0.84 12.66,6.39 12.49,9.05 -15.54,1.08 -11.23,2.4 -12.39,-4.44 -2.67,0.75 -0.72,0.69 -2.37,0.83 -1.09,-1.33 -1.58,-1.91 -2.64,-3.46 -4.33,0.87 -8.83,1.56 -9.96,4.94 -0.74,2.25 -1.82,10.36 -1.6,12.69 2.89,1.57 8.79,5.48 10.41,7.61 -3.31,2.4 -3.74,-1.28 -8.11,-2.94 3.11,5.28 10.42,11.17 18.48,11.78 16.98,1.3 41,-0.47 58.06,-3.52 12,-2.15 14.66,-2.91 21.61,-9.35 2.86,1.69 1.18,2.5 4.85,3.36 0.04,-3.34 -2.13,-3.25 -3.69,-6.06l2.29 -5.82 7.79 -0.7c-1.65,-2.87 2.87,-0.1 -7.44,-1.86l2.62 -18.79c0.06,-0.15 0.17,-0.4 0.28,-0.58 3.37,7.41 15.99,19.94 22.65,25.49 4.15,3.47 6.15,3.32 13,3.5 10.66,0.28 34.58,-0.83 44.73,-3.51 5.15,-1.36 6.89,-4.73 10.55,-6.04 2.3,1.16 1.54,1.06 3.35,2.34 -1.67,-2.15 -3.92,-2.62 -2.31,-6.61 1.57,-3.9 3.68,-2.13 6.76,-3.2 -1.15,0.08 -1.59,0.24 -2.78,0.03 -0.01,-0 0.72,1.14 -2.55,-0.93 0.04,-4.68 1.21,-14.82 2.36,-18.76 1.58,-5.43 3.41,-10.07 4.52,-16.22 0.8,-4.44 1.43,-15.69 -1.65,-17.93 -3.82,-2.8 -21.22,-0.29 -25.69,1.98 -3.86,1.96 -2.69,3.2 -7.69,1.39 -5.24,-1.9 -10.06,-3.72 -15.63,-5.22 -9.18,-2.46 -3.46,-1.8 -12.98,-7.89 -3.93,-2.51 -9.64,-4.94 -14.62,-5.94 -7.37,9.1 -10.09,28.41 -12.07,32.05 -0.94,1.73 -1.63,2.94 -2.52,4.63l-2.18 3.68c-0.87,1.06 -0.31,0.5 -1.28,1.28 1.89,-8.98 7.25,-29.52 0.11,-36.45 -4.34,-2.75 -28.6,-1.09 -36.67,3.74 -6.85,4.1 -5.42,1.26 -18.47,-3.02 -18.43,-6.04 -9.73,0.07 -23.52,-10.88 -5.32,-4.22 -15.5,-9.87 -24,-10.6 -3.34,3.11 -6.68,13.39 -9.51,18.15z"/>
   <path class="fil1" d="M204.36 164.21c-3.57,-6.63 -0.01,-11.2 -0.48,-16.83 -4.53,-3.59 -11.04,-3.06 -13.21,-5.16 3.58,-2.16 10.13,0.25 14.9,-0.18 1.04,-2.81 2.24,-6.05 2.24,-9.54 -3.62,-1.91 -6.77,-4.69 -11.54,-6.28 4.91,17.57 -35.59,28.44 -34.61,0.93 0.18,-4.99 2.1,-9.42 4.73,-12.07 2.9,-2.94 5.13,-6.01 11.24,-6.58 11.06,-1.02 19.87,5.7 19.88,15.85l12.52 4.41 7.74 -26.83c-0.98,-8.63 -6.13,-38.83 -15.76,-39.41 -6.65,-0.4 -29.09,11.59 -33.63,21.94 -5.17,0.37 -32.39,3.76 -34.61,3.07 -14.58,-4.5 -18.88,-3.92 -33.99,-2.53 -0.17,10.72 -1.02,17.22 0.23,28.3 0.73,6.46 4.99,19.28 1.3,25.37l-3.68 -1.88c-0.11,-4.51 -1.19,-5.47 2.31,-7.15l-3.57 -0.11c-0.94,-5.93 -3.52,-10.63 -4.65,-16.61 -1.17,-6.25 -1.15,-11.65 -2.78,-17.96 -1.33,-5.2 -3.46,-10.78 -6.42,-14.3 -3.06,-3.64 -9.07,-0.57 -13.83,2.16 -3.66,2.1 -9.15,5.61 -11.69,9.03 -4.43,5.98 -1.95,2.56 -16.53,4.52 -12.31,1.65 -6.98,2.21 -17.42,-0.57 -4.01,-1.07 -18.45,-3.39 -19.66,1.89 -0.9,3.95 0.06,17.99 0.73,21.35 1.96,9.93 1.3,13.35 0.53,23.88l-5.57 -0.57c4.81,1.3 5.22,0.88 5.03,5.91l-5.09 0.71c5.4,0.89 4.07,-0.97 5.31,4.35 0.73,3.15 2.16,4.01 4.86,5.67 4.37,2.7 9.34,4.93 14.46,7.04 15.24,6.28 16.77,8.11 32.26,1.47 8.56,-3.67 35,-17.24 39.35,-25.05 0.37,-0.65 1.59,-3.2 1.87,-3.46 1,-0.91 -2.07,-0.91 2.25,-0.94 4.39,-0.03 2.6,6.94 1.56,9.98l-7.06 -0.6c2.01,2.15 4.02,2.45 6.93,3.24 0.06,6.81 -1.19,4.56 -7.29,5.77 1.39,1.4 -0.24,0.66 3.46,1.37 1.94,0.37 1.17,-0.19 3.29,0.77 0.98,8.23 1.43,8.25 7.28,12.01 9.59,6.17 32.02,15.85 41.6,17.22 8.48,1.22 22.2,-6.49 29.26,-9.62 7.01,-3.11 23.18,-12.93 25.95,-13.98z"/>
   <path class="fil2" d="M366.78 82.09c-31.21,5.54 -43.68,50.2 -19.09,65.1 7.53,4.56 18.74,7.25 29.07,5.28 12.17,-2.32 17.41,-6.43 22.91,-13.65 26.99,-35.41 -8.72,-61.01 -32.9,-56.72z"/>
   <path class="fil2" d="M267.03 95.41c-10.94,2.8 -18.26,14.05 -13.95,27.97 2.74,8.87 13.68,18.87 26.35,15.06 22.63,-6.81 18.01,-50.83 -12.4,-43.03z"/>
   <path class="fil2" d="M196.26 126.23c-0.51,-1.07 -2.29,-3.08 1.24,-1.87 -0.01,-10.16 -8.83,-16.88 -19.88,-15.85 -6.11,0.57 -8.34,3.64 -11.24,6.58 -2.63,2.66 -4.55,7.08 -4.73,12.07 -0.98,27.51 39.52,16.64 34.61,-0.93z"/>
   <path class="fil2" d="M282.4 170.75c1.5,-3.43 -1.7,0.56 0,-2.56 6.28,-0.41 1.04,5.84 5.49,9.42 3.14,1.07 7.83,-2.09 11.67,-3.24 3.93,-1.18 9,-2.06 12.44,-3.17 -1.1,-4.89 -6.56,-6.06 -11.35,-7.84 -4.57,-1.71 -9.01,-3.39 -13.72,-4.96 -20.67,-6.87 -14.61,12.21 -4.53,12.35z"/>
   <g>
    <path class="fil2" d="M519.19 117.43c-13.88,3.71 -22.86,21.71 -9.26,31.15 8.95,6.22 21.35,3.69 26.13,-3.31 3.35,-4.9 5.77,-8.33 4.45,-13.67 -1.2,-4.89 -3.94,-8.1 -7.08,-10.72 -2.99,-2.49 -9.65,-4.67 -14.23,-3.45z"/>
    <path class="fil2" d="M471.2 113.57c-14.33,4.72 -6.44,25.28 5.41,21 12.58,-4.54 7.56,-25.26 -5.41,-21z"/>
   </g>
   <path class="fil2" d="M128.58 125.63c-5.55,1.14 -9.35,6.15 -7.52,12.85 1.24,4.54 6.9,9.78 13.15,8.28 10.73,-2.57 9,-24.15 -5.63,-21.13z"/>
   <path class="fil2" d="M348.68 47.24c3.28,1.31 3.69,-1.52 7.57,-2.06 -0.51,1.71 -1.85,3.83 -2.82,5.01 -2.47,3.03 -2.63,1.04 -5.76,2.92l1.95 1.64c0.11,0.07 0.35,0.21 0.44,0.26 0.09,0.06 0.32,0.15 0.46,0.25 -1.28,2.49 -2.97,4.47 -1.37,7.18 4.43,2.16 5.22,-2.94 6.85,-6.78 2.44,-5.76 5.6,-2.25 10.54,-4.7 -1.93,-2.22 -4.05,-1.16 -7.53,-0.83 4.28,-10.23 6.72,-6.56 10.18,-9.22 -1.36,-2.28 -0.33,-0.24 -2.67,-2.08l1.8 -2.64c-5.33,0.05 -5.66,3.13 -10.02,5.25 -2.72,1.33 -8.44,3.22 -9.63,5.8z"/>
   <path class="fil2" d="M142.86 159.7l1.48 4.4c3,-0.35 3.03,-1.44 5.71,-2.93 2.24,-1.24 3.86,-1.2 5.29,-3.25 -5.25,-2.86 -24.29,-5 -18.23,1.66 0.37,0.41 2.05,1.61 2.85,1.65 1.53,0.08 0.78,-0.21 0.94,-0.29l1.96 -1.24z"/>
   <path class="fil2" d="M469.18 147.45c1.06,1.55 1.55,2.13 2.64,3.46 1.66,-0.14 -0.3,-0.07 2.37,-0.83 1.16,6.85 -3.15,5.52 12.39,4.44 0.17,-2.66 -9.21,-8.2 -12.49,-9.05l-4.91 1.97z"/>
   <g>
    <path class="fil2" d="M628.1 117.88c-11.12,2.97 -18.3,17.38 -7.42,24.94 7.17,4.98 17.09,2.95 20.93,-2.65 2.68,-3.92 4.61,-6.67 3.56,-10.94 -0.96,-3.92 -3.15,-6.48 -5.67,-8.58 -2.39,-2 -7.73,-3.74 -11.39,-2.76z"/>
    <path class="fil2" d="M589.67 114.79c-11.47,3.78 -5.16,20.24 4.33,16.81 10.07,-3.64 6.06,-20.23 -4.33,-16.81z"/>
   </g>
   <path class="fil2" d="M78.72 124.99c-0.42,-0.87 -1.87,-2.52 1.02,-1.53 -0.01,-8.3 -7.21,-13.79 -16.25,-12.95 -4.99,0.46 -6.81,2.97 -9.18,5.37 -2.15,2.17 -3.72,5.79 -3.86,9.87 -0.8,22.48 32.29,13.59 28.28,-0.76z"/>
   <path class="fil2" d="M23.43 124.5c-4.54,0.94 -7.64,5.03 -6.14,10.5 1.01,3.71 5.64,7.99 10.74,6.77 8.77,-2.11 7.36,-19.73 -4.59,-17.27z"/>
  </g>
 </g>
</svg>
